<svg width="31" height="31" viewBox="0 0 31 31" fill="none" xmlns="http://www.w3.org/2000/svg">
<path d="M1.7078 31C1.23063 30.9992 0.775748 30.7979 0.454137 30.4453C0.126596 30.0956 -0.0361602 29.6227 0.00676637 29.1454L0.423518 24.5615L19.6758 5.31085L25.6923 11.3273L6.44516 30.5763L1.86259 30.9932C1.80986 30.9983 1.75712 31 1.7078 31ZM26.8932 10.1244L20.8784 4.10789L24.4863 0.499025C24.8053 0.179524 25.2383 0 25.6897 0C26.1412 0 26.5742 0.179524 26.8932 0.499025L30.5011 4.10789C30.8205 4.42704 31 4.86011 31 5.3117C31 5.76329 30.8205 6.19636 30.5011 6.51551L26.8949 10.1227L26.8932 10.1244Z" fill="black"/>
</svg>
