<svg width="15" height="19" viewBox="0 0 15 19" fill="none" xmlns="http://www.w3.org/2000/svg">
<path d="M13.7725 2.39641H10.3106C10.0902 1.04335 8.91043 0 7.4625 0C6.01456 0 4.81208 1.04335 4.61432 2.39641H1.20246C0.538709 2.39641 0 2.91919 0 3.55838V4.74451C0 5.33758 0.440983 5.81201 1.03198 5.88231V17.458C1.03198 18.3125 1.74345 19 2.62767 19H12.3723C13.2566 19 13.968 18.3125 13.968 17.458V5.90429C14.5567 5.80983 15 5.3354 15 4.76648V3.58036C14.975 2.91919 14.434 2.39641 13.7725 2.39641ZM7.4625 0.878612C8.41947 0.878612 9.20594 1.52001 9.37642 2.39641H5.52355C5.71905 1.54196 6.50552 0.878612 7.4625 0.878612ZM13.036 17.4844C13.036 17.8402 12.7406 18.1478 12.3496 18.1478H2.60267C2.23444 18.1478 1.91621 17.8622 1.91621 17.4844V5.93063H13.0134V17.4844H13.036ZM14.0658 4.74451C14.0658 4.91145 13.943 5.03007 13.7703 5.03007H1.20017C1.02741 5.03007 0.904659 4.91145 0.904659 4.74451V3.55838C0.904659 3.39144 1.02741 3.27282 1.20017 3.27282H13.7453C13.918 3.27282 14.0407 3.39144 14.0407 3.55838V4.74451H14.0658ZM3.95286 15.87V8.37539C3.95286 8.13817 4.14833 7.94926 4.39384 7.94926C4.63935 7.94926 4.83482 8.13815 4.83482 8.37539V15.87C4.83482 16.1072 4.63935 16.2961 4.39384 16.2961C4.14836 16.3224 3.95286 16.1072 3.95286 15.87ZM7.06926 15.87V8.37539C7.06926 8.13817 7.26474 7.94926 7.51024 7.94926C7.75572 7.94926 7.95122 8.13815 7.95122 8.37539V15.87C7.95122 16.1072 7.75575 16.2961 7.51024 16.2961C7.26699 16.3224 7.06926 16.1072 7.06926 15.87ZM10.1879 15.87V8.37539C10.1879 8.13817 10.3834 7.94926 10.6289 7.94926C10.8744 7.94926 11.0699 8.13815 11.0699 8.37539V15.87C11.0699 16.1072 10.8744 16.2961 10.6289 16.2961C10.4084 16.3224 10.1879 16.1072 10.1879 15.87Z" fill="#DF2B2B"/>
</svg>
