<svg width="432" height="114" viewBox="0 0 432 114" fill="none" xmlns="http://www.w3.org/2000/svg">
<g filter="url(#filter0_d_2_8)">
<path d="M46.8378 2H422L385.108 104H2L46.8378 2Z" fill="#FFDB1F"/>
<path d="M79.5066 57.52C77.0666 59.68 74.5466 61.72 71.9466 63.64C69.3866 65.56 67.2466 66.92 65.5266 67.72C65.4066 68.16 65.2266 68.48 64.9866 68.68C64.7466 68.92 64.3866 69.04 63.9066 69.04C63.5466 69.04 63.2866 68.96 63.1266 68.8C62.9666 68.68 62.8866 68.44 62.8866 68.08C62.8866 67.84 62.9666 66.84 63.1266 65.08C63.3266 63.32 63.4266 61.26 63.4266 58.9C63.4266 54.9 63.3666 51.28 63.2466 48.04C63.1666 44.28 63.1266 41.64 63.1266 40.12C63.1266 37.76 63.3666 35.82 63.8466 34.3C64.2066 33.34 64.8466 32.86 65.7666 32.86C66.0866 32.86 66.3666 32.92 66.6066 33.04C66.8866 33.16 67.0266 33.34 67.0266 33.58C66.9866 33.78 66.7666 34.48 66.3666 35.68C66.0066 36.88 65.8266 38.02 65.8266 39.1C65.8266 42.1 65.8866 45.38 66.0066 48.94C66.0866 53.5 66.1266 56.66 66.1266 58.42C66.1266 61.42 66.1066 63.22 66.0666 63.82C67.5066 63.26 69.4466 62.1 71.8866 60.34C74.3666 58.58 76.4466 56.98 78.1266 55.54C81.6066 52.42 84.1466 49.62 85.7466 47.14C87.3466 44.66 88.1466 42.08 88.1466 39.4C88.1466 36.16 86.1066 33.94 82.0266 32.74C77.9866 31.54 72.6866 30.94 66.1266 30.94C64.1266 30.94 61.4466 31.18 58.0866 31.66C57.4466 31.7 56.4466 31.9 55.0866 32.26C54.4866 32.46 54.0666 32.56 53.8266 32.56C53.5066 32.56 53.2066 32.3 52.9266 31.78C52.6066 31.26 52.4466 30.74 52.4466 30.22C52.4466 30.02 52.5866 29.84 52.8666 29.68C53.1466 29.48 53.5866 29.34 54.1866 29.26C56.5866 28.94 58.6266 28.7 60.3066 28.54C62.0266 28.38 64.0266 28.3 66.3066 28.3C73.5866 28.3 79.5066 29.12 84.0666 30.76C88.6666 32.4 90.9666 35.18 90.9666 39.1C90.9666 42.22 90.0666 45.18 88.2666 47.98C86.4666 50.78 83.5466 53.96 79.5066 57.52ZM118.644 52.6C118.644 53.32 118.104 54.9 117.024 57.34C115.984 59.78 114.384 62.04 112.224 64.12C110.104 66.2 107.484 67.24 104.364 67.24C101.804 67.24 99.6644 66.44 97.9444 64.84C96.2244 63.24 95.3644 60.78 95.3644 57.46C95.3644 54.34 96.0844 51.26 97.5244 48.22C98.9644 45.14 100.844 42.64 103.164 40.72C105.484 38.76 107.884 37.78 110.364 37.78C111.844 37.78 113.084 38.12 114.084 38.8C115.124 39.44 115.644 40.38 115.644 41.62C115.644 43.02 114.844 44.38 113.244 45.7C111.684 47.02 109.644 48.18 107.124 49.18C104.604 50.18 102.004 50.9 99.3244 51.34C98.8444 53.18 98.6044 54.98 98.6044 56.74C98.6044 59.06 99.1444 60.86 100.224 62.14C101.344 63.42 102.924 64.06 104.964 64.06C108.044 64.06 110.544 62.96 112.464 60.76C114.384 58.56 115.984 56.08 117.264 53.32C117.344 53.16 117.484 52.86 117.684 52.42C117.884 51.94 118.064 51.7 118.224 51.7C118.504 51.7 118.644 52 118.644 52.6ZM109.644 40.24C108.124 40.24 106.664 40.74 105.264 41.74C103.864 42.74 102.684 43.94 101.724 45.34C100.804 46.74 100.204 47.98 99.9244 49.06C101.764 48.86 103.704 48.34 105.744 47.5C107.784 46.66 109.484 45.74 110.844 44.74C112.244 43.74 112.944 42.92 112.944 42.28C112.944 41.64 112.604 41.14 111.924 40.78C111.284 40.42 110.524 40.24 109.644 40.24ZM151.036 38.2C148.956 40.56 147.016 43.94 145.216 48.34C143.416 52.74 141.996 57.5 140.956 62.62C140.836 63.22 140.636 64.42 140.356 66.22L140.056 68.32C139.936 68.96 139.656 69.46 139.216 69.82C138.816 70.18 138.096 70.36 137.056 70.36C136.856 70.36 136.176 69.16 135.016 66.76C133.856 64.32 132.636 61.7 131.356 58.9L128.776 53.26C127.216 49.86 125.916 47.2 124.876 45.28C123.836 43.36 123.076 42.4 122.596 42.4C122.436 42.4 122.296 42.5 122.176 42.7C122.096 42.9 121.996 43 121.876 43C121.676 43 121.496 42.92 121.336 42.76C121.216 42.56 121.156 42.36 121.156 42.16C121.156 41.64 121.436 40.96 121.996 40.12C122.596 39.28 123.176 38.86 123.736 38.86C124.136 38.86 124.436 38.94 124.636 39.1C124.836 39.26 125.016 39.44 125.176 39.64C125.336 39.84 125.456 40 125.536 40.12C126.496 41.32 128.156 44.48 130.516 49.6C131.356 51.4 133.436 56.1 136.756 63.7L138.136 66.88C138.136 65.84 138.336 64.16 138.736 61.84C139.616 57.12 140.936 52.44 142.696 47.8C144.456 43.16 146.516 39.28 148.876 36.16C149.356 35.52 149.736 35.08 150.016 34.84C150.336 34.56 150.736 34.42 151.216 34.42C151.416 34.42 151.736 34.74 152.176 35.38C152.616 35.98 152.836 36.38 152.836 36.58C152.836 36.78 152.556 37.06 151.996 37.42C151.476 37.78 151.156 38.04 151.036 38.2Z" fill="#877100"/>
<path d="M193.406 77.5C193.406 77.78 193.246 78 192.926 78.16C192.646 78.32 192.326 78.4 191.966 78.4C191.086 78.4 190.346 78.14 189.746 77.62C189.186 77.14 188.906 76.42 188.906 75.46C188.906 70.42 188.946 66.3 189.026 63.1L189.146 57.76C189.266 54.04 189.326 51.26 189.326 49.42C185.326 58.34 181.406 65.06 177.566 69.58C173.726 74.14 169.426 76.42 164.666 76.42C161.146 76.42 158.566 75.34 156.926 73.18C155.286 71.02 154.466 67.66 154.466 63.1C154.466 56.98 155.846 51 158.606 45.16C161.366 39.28 164.906 34.5 169.226 30.82C173.586 27.14 177.986 25.3 182.426 25.3C183.826 25.3 184.766 25.74 185.246 26.62C185.766 27.5 186.026 28.42 186.026 29.38C186.026 30.38 185.926 31.18 185.726 31.78C185.566 32.34 185.366 32.62 185.126 32.62C184.926 32.62 184.766 32.44 184.646 32.08C184.566 31.72 184.466 31.08 184.346 30.16C184.226 29.28 184.026 28.64 183.746 28.24C183.466 27.8 182.966 27.58 182.246 27.58C178.566 27.58 174.766 29.38 170.846 32.98C166.966 36.58 163.726 41.14 161.126 46.66C158.566 52.14 157.286 57.5 157.286 62.74C157.286 66.06 157.826 68.64 158.906 70.48C160.026 72.36 162.026 73.3 164.906 73.3C168.026 73.3 170.926 72.08 173.606 69.64C176.286 67.2 178.666 64.2 180.746 60.64C182.866 57.04 185.366 52.28 188.246 46.36C186.206 46.76 183.346 47.56 179.666 48.76L177.326 49.54L175.106 50.26C173.626 50.78 172.426 51.18 171.506 51.46C170.586 51.7 169.826 51.82 169.226 51.82C168.826 51.82 168.506 51.64 168.266 51.28C168.066 50.88 167.966 50.46 167.966 50.02C167.966 49.46 168.786 48.9 170.426 48.34C172.066 47.74 174.526 47.08 177.806 46.36C179.086 46.08 180.926 45.6 183.326 44.92C183.726 44.8 184.926 44.48 186.926 43.96C188.966 43.44 190.386 43.18 191.186 43.18C191.266 43.18 191.486 43.18 191.846 43.18C192.246 43.18 192.526 43.34 192.686 43.66C192.846 43.94 192.926 44.4 192.926 45.04C192.926 45.4 192.686 45.72 192.206 46L192.146 50.62C192.026 53.74 191.966 57.14 191.966 60.82V69.34V72.64C192.046 74 192.186 74.96 192.386 75.52C192.586 76.12 192.806 76.54 193.046 76.78C193.286 77.06 193.406 77.3 193.406 77.5ZM205.862 67.42C203.182 67.42 201.202 66.68 199.922 65.2C198.642 63.72 198.002 61.88 198.002 59.68C198.002 57.76 198.342 55.38 199.022 52.54C199.742 49.7 200.742 47.16 202.022 44.92C202.102 44.76 202.422 44.18 202.982 43.18C203.582 42.14 204.242 41.36 204.962 40.84C205.682 40.28 206.442 40 207.242 40C207.602 40 207.922 40.1 208.202 40.3C208.522 40.46 208.682 40.68 208.682 40.96C208.682 41.04 208.562 41.24 208.322 41.56C208.122 41.84 207.962 42.06 207.842 42.22C206.482 43.86 205.382 45.48 204.542 47.08C203.422 49.12 202.542 51.14 201.902 53.14C201.302 55.14 201.002 57.32 201.002 59.68C201.002 62.84 202.922 64.42 206.762 64.42C208.562 64.42 210.222 63.9 211.742 62.86C213.302 61.82 214.542 60.56 215.462 59.08C216.382 57.56 216.842 56.18 216.842 54.94C216.842 53.54 216.382 52.32 215.462 51.28C214.542 50.24 213.282 49.14 211.682 47.98C210.642 47.22 209.882 46.6 209.402 46.12C208.922 45.64 208.682 45.24 208.682 44.92C208.682 44.44 209.022 44.06 209.702 43.78C210.382 43.46 211.182 43.3 212.102 43.3C212.622 43.3 212.962 43.34 213.122 43.42C213.282 43.46 213.362 43.56 213.362 43.72C213.362 43.8 213.282 43.94 213.122 44.14C213.002 44.3 212.942 44.44 212.942 44.56C212.942 44.68 213.342 45.08 214.142 45.76C215.742 47.08 217.082 48.42 218.162 49.78C219.242 51.14 219.782 52.74 219.782 54.58C219.782 56.14 219.202 57.94 218.042 59.98C216.882 62.02 215.242 63.78 213.122 65.26C211.002 66.7 208.582 67.42 205.862 67.42ZM247.606 68.02C246.806 68.02 246.066 67.18 245.386 65.5C244.746 63.82 244.346 62.08 244.186 60.28C244.026 58.56 243.906 55.08 243.826 49.84C243.786 49 243.766 48.16 243.766 47.32C243.766 46.44 243.746 45.7 243.706 45.1C242.546 47.86 240.966 51 238.966 54.52C236.966 58.04 234.946 61.06 232.906 63.58C230.906 66.1 229.266 67.36 227.986 67.36C226.666 67.36 225.786 66.66 225.346 65.26C224.946 63.86 224.746 61.64 224.746 58.6C224.746 55.76 225.106 52.54 225.826 48.94C226.586 45.34 227.446 42.6 228.406 40.72C228.806 39.88 229.146 39.32 229.426 39.04C229.706 38.72 230.026 38.56 230.386 38.56C231.386 38.56 231.886 38.76 231.886 39.16C231.886 39.36 231.686 39.82 231.286 40.54C230.206 42.54 229.266 44.94 228.466 47.74C227.666 50.54 227.266 54.3 227.266 59.02C227.266 62.18 227.706 63.76 228.586 63.76C229.626 63.76 231.026 62.62 232.786 60.34C234.586 58.02 236.366 55.26 238.126 52.06C239.886 48.86 241.226 46.08 242.146 43.72C242.466 42.92 242.826 41.68 243.226 40C243.346 39.32 243.466 38.84 243.586 38.56C243.706 38.24 243.846 38.08 244.006 38.08C244.446 38.08 244.926 38.26 245.446 38.62C245.966 38.98 246.226 39.36 246.226 39.76C246.226 41.68 246.286 44.98 246.406 49.66C246.566 54.3 246.746 57.52 246.946 59.32C247.106 60.88 247.386 62.1 247.786 62.98C248.226 63.86 248.646 64.56 249.046 65.08C249.446 65.56 249.646 65.86 249.646 65.98C249.646 66.62 249.466 67.12 249.106 67.48C248.746 67.84 248.246 68.02 247.606 68.02ZM273.108 43.66C272.828 43.66 272.548 43.54 272.268 43.3C272.028 43.06 271.748 42.72 271.428 42.28C271.148 41.88 270.768 41.54 270.288 41.26C269.848 40.98 269.388 40.84 268.908 40.84C267.748 40.84 266.188 42.38 264.228 45.46C262.268 48.5 260.348 52.34 258.468 56.98C258.508 57.9 258.568 59.06 258.648 60.46C258.768 61.86 258.848 62.9 258.888 63.58L259.068 65.98C259.068 66.54 258.948 67.02 258.708 67.42C258.468 67.86 258.028 68.08 257.388 68.08C256.708 68.08 256.268 67.18 256.068 65.38C255.868 63.54 255.748 60.88 255.708 57.4C255.668 56.52 255.628 55.26 255.588 53.62C255.588 51.98 255.548 50.02 255.468 47.74C255.348 44.3 255.288 41.84 255.288 40.36C255.288 39.44 255.848 38.98 256.968 38.98C257.648 38.98 258.048 39.28 258.168 39.88C258.328 40.44 258.408 41.54 258.408 43.18V52.72C259.608 49.64 260.908 46.98 262.308 44.74C263.708 42.5 265.068 40.8 266.388 39.64C267.748 38.44 268.948 37.84 269.988 37.84C270.868 37.84 271.708 38.04 272.508 38.44C273.308 38.84 273.948 39.36 274.428 40C274.908 40.6 275.148 41.18 275.148 41.74C275.148 42.1 274.888 42.52 274.368 43C273.888 43.44 273.468 43.66 273.108 43.66ZM315.532 68.14C314.812 68.14 314.452 67.78 314.452 67.06C314.452 58.98 314.192 52.8 313.672 48.52C313.152 44.2 312.252 42.04 310.972 42.04C308.812 42.04 305.652 49.58 301.492 64.66V64.72C301.492 65.2 301.332 65.62 301.012 65.98C300.692 66.3 300.272 66.46 299.752 66.46C299.032 66.46 298.672 66.1 298.672 65.38C298.672 63.78 298.752 61.3 298.912 57.94C299.072 54.18 299.152 51.22 299.152 49.06C299.152 46.06 299.052 43.94 298.852 42.7C298.692 41.42 298.312 40.78 297.712 40.78C296.352 40.78 294.632 43.28 292.552 48.28C290.472 53.24 288.292 59.1 286.012 65.86L285.472 67.42C285.312 67.82 285.072 68.16 284.752 68.44C284.472 68.72 284.152 68.86 283.792 68.86C283.312 68.86 282.992 68.82 282.832 68.74C282.672 68.66 282.572 68.42 282.532 68.02C282.332 66.06 282.172 63.44 282.052 60.16C281.972 59.32 281.892 57.94 281.812 56.02C281.412 49.26 281.052 44.7 280.732 42.34C280.412 39.94 280.252 38.6 280.252 38.32C280.252 38 280.412 37.62 280.732 37.18C281.052 36.74 281.352 36.52 281.632 36.52C282.272 36.52 282.792 36.98 283.192 37.9C283.392 38.34 283.612 40.1 283.852 43.18C284.092 46.26 284.292 50.08 284.452 54.64L284.752 63.82C286.952 57.02 289.232 50.86 291.592 45.34C293.952 39.78 296.112 37 298.072 37C299.392 37 300.292 37.96 300.772 39.88C301.252 41.8 301.492 44.58 301.492 48.22C301.492 50.14 301.452 52.9 301.372 56.5L301.312 59.26C302.952 53.54 304.572 48.74 306.172 44.86C307.812 40.98 309.452 39.04 311.092 39.04C315.212 39.04 317.272 48.16 317.272 66.4C317.272 66.88 317.112 67.28 316.792 67.6C316.472 67.96 316.052 68.14 315.532 68.14ZM347.453 52.6C347.453 53.32 346.913 54.9 345.833 57.34C344.793 59.78 343.193 62.04 341.033 64.12C338.913 66.2 336.293 67.24 333.173 67.24C330.613 67.24 328.473 66.44 326.753 64.84C325.033 63.24 324.173 60.78 324.173 57.46C324.173 54.34 324.893 51.26 326.333 48.22C327.773 45.14 329.653 42.64 331.973 40.72C334.293 38.76 336.693 37.78 339.173 37.78C340.653 37.78 341.893 38.12 342.893 38.8C343.933 39.44 344.453 40.38 344.453 41.62C344.453 43.02 343.653 44.38 342.053 45.7C340.493 47.02 338.453 48.18 335.933 49.18C333.413 50.18 330.813 50.9 328.133 51.34C327.653 53.18 327.413 54.98 327.413 56.74C327.413 59.06 327.953 60.86 329.033 62.14C330.153 63.42 331.733 64.06 333.773 64.06C336.853 64.06 339.353 62.96 341.273 60.76C343.193 58.56 344.793 56.08 346.073 53.32C346.153 53.16 346.293 52.86 346.493 52.42C346.693 51.94 346.873 51.7 347.033 51.7C347.313 51.7 347.453 52 347.453 52.6ZM338.453 40.24C336.933 40.24 335.473 40.74 334.073 41.74C332.673 42.74 331.493 43.94 330.533 45.34C329.613 46.74 329.013 47.98 328.733 49.06C330.573 48.86 332.513 48.34 334.553 47.5C336.593 46.66 338.293 45.74 339.653 44.74C341.053 43.74 341.753 42.92 341.753 42.28C341.753 41.64 341.413 41.14 340.733 40.78C340.093 40.42 339.333 40.24 338.453 40.24ZM374.745 44.56C371.065 45.2 369.005 45.56 368.565 45.64L364.665 46.3C364.665 48.38 364.685 50.56 364.725 52.84C364.805 55.12 364.905 57.12 365.025 58.84C365.185 61.16 365.465 62.94 365.865 64.18C366.265 65.42 366.485 66.12 366.525 66.28C366.525 66.68 366.265 67.04 365.745 67.36C365.265 67.72 364.805 67.9 364.365 67.9C364.125 67.9 363.925 67.82 363.765 67.66C363.605 67.54 363.465 67.32 363.345 67C363.105 66.44 362.865 65.4 362.625 63.88C362.425 62.36 362.265 60.68 362.145 58.84C362.025 57.2 361.925 55.3 361.845 53.14C361.805 50.94 361.785 48.82 361.785 46.78C359.545 47.14 357.245 47.58 354.885 48.1C352.765 48.54 351.505 48.76 351.105 48.76C350.625 48.76 350.165 48.62 349.725 48.34C349.325 48.06 349.125 47.68 349.125 47.2C349.125 46.68 349.305 46.34 349.665 46.18C350.025 46.02 350.625 45.94 351.465 45.94C352.065 45.94 352.945 45.84 354.105 45.64C355.265 45.4 356.005 45.24 356.325 45.16C359.005 44.64 360.825 44.3 361.785 44.14C361.785 43.3 361.745 42.2 361.665 40.84C361.585 39 361.545 37.6 361.545 36.64C361.545 35.08 361.585 33.88 361.665 33.04C361.785 32.16 361.985 31.38 362.265 30.7C362.585 29.9 363.185 29.5 364.065 29.5C364.425 29.5 364.665 29.56 364.785 29.68C364.905 29.8 364.965 30.02 364.965 30.34C364.965 30.58 364.865 31.28 364.665 32.44C364.465 33.6 364.365 35.14 364.365 37.06C364.365 38.54 364.405 40.2 364.485 42.04L364.545 43.66C366.345 43.38 369.905 42.64 375.225 41.44C375.545 41.36 375.805 41.08 376.005 40.6C376.245 40.12 376.485 39.88 376.725 39.88C377.165 39.88 377.605 40.14 378.045 40.66C378.525 41.14 378.765 41.64 378.765 42.16C378.765 42.84 378.465 43.36 377.865 43.72C377.305 44.08 376.265 44.36 374.745 44.56Z" fill="white"/>
</g>
<defs>
<filter id="filter0_d_2_8" x="0" y="0" width="432" height="114" filterUnits="userSpaceOnUse" color-interpolation-filters="sRGB">
<feFlood flood-opacity="0" result="BackgroundImageFix"/>
<feColorMatrix in="SourceAlpha" type="matrix" values="0 0 0 0 0 0 0 0 0 0 0 0 0 0 0 0 0 0 127 0" result="hardAlpha"/>
<feOffset dx="4" dy="4"/>
<feGaussianBlur stdDeviation="3"/>
<feComposite in2="hardAlpha" operator="out"/>
<feColorMatrix type="matrix" values="0 0 0 0 0 0 0 0 0 0 0 0 0 0 0 0 0 0 0.25 0"/>
<feBlend mode="normal" in2="BackgroundImageFix" result="effect1_dropShadow_2_8"/>
<feBlend mode="normal" in="SourceGraphic" in2="effect1_dropShadow_2_8" result="shape"/>
</filter>
</defs>
</svg>
