<svg width="38" height="25" viewBox="0 0 38 25" fill="none" xmlns="http://www.w3.org/2000/svg">
<path d="M37.1152 5.06022H0.571003C0.255809 5.06022 0 4.80442 0 4.48922V0.571003C0 0.255809 0.255809 0 0.571003 0H37.1152C37.4304 0 37.6862 0.255809 37.6862 0.571003V4.49036C37.6862 4.80556 37.4304 5.06022 37.1152 5.06022ZM1.14201 3.91822H36.5442V1.14201H1.14201V3.91822Z" fill="black"/>
<path d="M3.58131 24.126H1.90484C1.73697 24.126 1.57595 24.0518 1.46746 23.9216C1.35897 23.7914 1.31329 23.6212 1.34298 23.4556L4.6959 4.38986C4.74387 4.11806 4.98026 3.91821 5.25777 3.91821H9.17028C9.34957 3.91821 9.51973 4.00272 9.62708 4.14661C9.73443 4.29051 9.76869 4.47665 9.7173 4.6491L4.12833 23.716C4.05752 23.9593 3.83369 24.126 3.58131 24.126ZM2.58548 22.984H3.1542L8.40856 5.06022H5.73741L2.58548 22.984Z" fill="black"/>
<path d="M34.8371 24.2066H33.1595C32.9059 24.2066 32.6833 24.0399 32.6125 23.7967L27.0235 4.73088C26.9721 4.55844 27.0063 4.37229 27.1137 4.2284C27.2222 4.08451 27.3912 4 27.5705 4H31.483C31.7605 4 31.9969 4.19985 32.0449 4.47165L35.3989 23.5374C35.4275 23.7042 35.3818 23.8743 35.2745 24.0034C35.1671 24.1324 35.005 24.2066 34.8371 24.2066ZM33.5866 23.0646H34.1564L31.0034 5.14086H28.3334L33.5866 23.0646Z" fill="black"/>
<path d="M28.6289 8.80375H8.07283C7.75764 8.80375 7.50183 8.54794 7.50183 8.23275C7.50183 7.91755 7.75764 7.66174 8.07283 7.66174H28.6289C28.9441 7.66174 29.1999 7.91755 29.1999 8.23275C29.1999 8.54794 28.9453 8.80375 28.6289 8.80375Z" fill="black"/>
</svg>
