<svg width="27" height="38" viewBox="0 0 27 38" fill="none" xmlns="http://www.w3.org/2000/svg">
<path d="M26.7751 12.2825L25.5906 11.0981C26.2764 10.3143 26.7149 9.34509 26.8509 8.31258C26.987 7.28007 26.8145 6.23038 26.3553 5.29568C25.3657 3.49649 23.2517 3.4815 21.3925 3.4665C18.6338 3.4665 16.8945 3.27159 16.3848 0.60279C16.367 0.505345 16.3297 0.412502 16.2751 0.329843C16.2205 0.247184 16.1498 0.176416 16.0672 0.121794C15.9845 0.0671723 15.8917 0.0298248 15.7943 0.011997C15.6968 -0.00583087 15.5968 -0.00377061 15.5002 0.0180535C15.4037 0.0377248 15.312 0.0762129 15.2304 0.131319C15.1488 0.186425 15.0788 0.25707 15.0245 0.339217C14.9702 0.421365 14.9327 0.513406 14.9139 0.610082C14.8952 0.706758 14.8957 0.806176 14.9154 0.902656C15.7251 4.89086 18.9936 4.93584 21.3775 4.96583C23.2967 4.96583 24.5111 5.05579 25.0359 6.01536C25.3451 6.65415 25.4602 7.3696 25.3669 8.07314C25.2737 8.77668 24.9761 9.43743 24.5111 9.97358L24.0013 9.46381C23.9344 9.39178 23.8531 9.33456 23.7628 9.29583C23.6724 9.2571 23.5749 9.23771 23.4766 9.23891H16.3398C16.236 9.23996 16.1335 9.26172 16.0382 9.30291C15.943 9.3441 15.8569 9.4039 15.785 9.4788L0.20705 26.4062C0.0741427 26.5456 0 26.7308 0 26.9235C0 27.1161 0.0741427 27.3013 0.20705 27.4407L10.1176 37.3063C10.1845 37.3783 10.2658 37.4355 10.3562 37.4743C10.4466 37.513 10.544 37.5324 10.6424 37.5312C10.7442 37.5317 10.8449 37.5105 10.938 37.4692C11.031 37.4278 11.1142 37.3672 11.1821 37.2913L26.8051 20.3639C26.9306 20.2237 26.9999 20.0422 27 19.8541V12.7923C26.9991 12.6965 26.9787 12.6019 26.9401 12.5143C26.9014 12.4266 26.8453 12.3478 26.7751 12.2825ZM25.5007 19.5693L10.6574 35.702L1.79633 26.886L16.6696 10.7382H23.1167L25.5007 13.1222V19.5693Z" fill="black"/>
<path d="M19.3985 14.7563C19.2121 14.9436 19.0646 15.1658 18.9642 15.4103C18.8639 15.6547 18.8128 15.9165 18.8137 16.1807C18.8131 16.4426 18.8644 16.702 18.9648 16.944C19.0652 17.1859 19.2126 17.4055 19.3985 17.59C19.7777 17.965 20.2896 18.1751 20.8228 18.1748C21.3516 18.1744 21.8585 17.9641 22.2322 17.59C22.4229 17.4083 22.5744 17.1896 22.6775 16.9472C22.7806 16.7049 22.8332 16.444 22.8319 16.1807C22.8326 15.9152 22.7799 15.6522 22.6768 15.4075C22.5738 15.1628 22.4226 14.9414 22.2322 14.7563C21.8557 14.3818 21.3463 14.1716 20.8153 14.1716C20.2843 14.1716 19.7749 14.3818 19.3985 14.7563ZM21.1827 16.5255C21.1364 16.5745 21.0806 16.6136 21.0188 16.6402C20.9569 16.6669 20.8902 16.6807 20.8228 16.6807C20.7554 16.6807 20.6888 16.6669 20.6269 16.6402C20.565 16.6136 20.5092 16.5745 20.463 16.5255C20.4138 16.4829 20.3748 16.4298 20.3488 16.3701C20.3229 16.3105 20.3107 16.2457 20.3131 16.1807C20.3124 16.1137 20.3253 16.0472 20.3511 15.9854C20.3769 15.9235 20.4149 15.8675 20.463 15.8208C20.5592 15.7265 20.6881 15.6728 20.8228 15.6709C20.9564 15.6782 21.0834 15.7312 21.1827 15.8208C21.277 15.9171 21.3307 16.0459 21.3326 16.1807C21.33 16.3109 21.2761 16.4348 21.1827 16.5255Z" fill="black"/>
<path d="M16.19 16.9005C16.1203 16.8302 16.0373 16.7744 15.946 16.7364C15.8546 16.6983 15.7567 16.6787 15.6577 16.6787C15.5587 16.6787 15.4607 16.6983 15.3694 16.7364C15.278 16.7744 15.1951 16.8302 15.1254 16.9005L6.12948 25.8964C5.99116 26.0391 5.91382 26.23 5.91382 26.4287C5.91382 26.6274 5.99116 26.8183 6.12948 26.9609C6.26789 27.1022 6.4565 27.183 6.65424 27.1858C6.85685 27.1853 7.05098 27.1045 7.194 26.9609L16.19 17.965C16.3283 17.8223 16.4056 17.6314 16.4056 17.4327C16.4056 17.234 16.3283 17.0431 16.19 16.9005Z" fill="black"/>
<path d="M18.9785 20.7388L12.5764 27.1409C12.4737 27.2457 12.404 27.3783 12.3759 27.5223C12.3478 27.6663 12.3627 27.8155 12.4185 27.9511C12.4744 28.0868 12.5689 28.2031 12.6902 28.2856C12.8116 28.3682 12.9545 28.4132 13.1012 28.4153C13.3038 28.4148 13.4979 28.3339 13.641 28.1904L20.0431 21.7883C20.1814 21.6456 20.2587 21.4547 20.2587 21.256C20.2587 21.0573 20.1814 20.8664 20.0431 20.7238C19.9724 20.6545 19.8887 20.5999 19.7968 20.5631C19.7049 20.5263 19.6067 20.5081 19.5077 20.5095C19.4087 20.5109 19.311 20.5318 19.2202 20.5712C19.1294 20.6106 19.0472 20.6675 18.9785 20.7388Z" fill="black"/>
</svg>
