<svg width="30" height="28" viewBox="0 0 30 28" fill="none" xmlns="http://www.w3.org/2000/svg">
<path d="M10 13C9.44772 13 9 13.4477 9 14C9 14.5523 9.44772 15 10 15V13ZM29.7071 14.7071C30.0976 14.3166 30.0976 13.6834 29.7071 13.2929L23.3431 6.92893C22.9526 6.53841 22.3195 6.53841 21.9289 6.92893C21.5384 7.31946 21.5384 7.95262 21.9289 8.34315L27.5858 14L21.9289 19.6569C21.5384 20.0474 21.5384 20.6805 21.9289 21.0711C22.3195 21.4616 22.9526 21.4616 23.3431 21.0711L29.7071 14.7071ZM10 15H29V13H10V15Z" fill="black"/>
<path d="M18 23V26H2V2H18V5H20V1C20 0.734784 19.8946 0.48043 19.7071 0.292893C19.5196 0.105357 19.2652 0 19 0H1C0.734784 0 0.48043 0.105357 0.292893 0.292893C0.105357 0.48043 0 0.734784 0 1V27C0 27.2652 0.105357 27.5196 0.292893 27.7071C0.48043 27.8946 0.734784 28 1 28H19C19.2652 28 19.5196 27.8946 19.7071 27.7071C19.8946 27.5196 20 27.2652 20 27V23H18Z" fill="black"/>
</svg>
